<svg id="Layer_1" data-name="Layer 1" xmlns="http://www.w3.org/2000/svg" viewBox="0 0 124.49 20.36"><defs><style>.cls-1{font-size:18px;font-family:TypoGraphica, TypoGraphica;}.cls-1,.cls-8{fill:#ffb65f;}.cls-2{letter-spacing:-0.04em;}.cls-3{letter-spacing:0em;}.cls-4{fill:#e2a26d;}.cls-5,.cls-9{fill:none;}.cls-5{stroke:#e2a26d;}.cls-5,.cls-6{stroke-width:0.3px;}.cls-6{fill:#fff;stroke:#ffc388;}.cls-7{fill:#bc7835;}.cls-9{stroke:#ffb65f;stroke-width:0.2px;}</style></defs><title>SB</title><text class="cls-1" transform="translate(13.24 15.24)"><tspan class="cls-2">S</tspan><tspan x="7.87" y="0">tudent </tspan><tspan class="cls-3" x="62.67" y="0">B</tspan><tspan x="72.19" y="0">urger</tspan></text><path class="cls-4" d="M5.17,9.34c.27.41.52.83.8,1.24a5.3,5.3,0,0,1,.73,1.29,3.2,3.2,0,0,1,.18.74c0,.12,0,.25,0,.38s0,.15.12.17l1.46,0,1.46,0c.05,0,.07,0,.07-.12s0-.26,0-.39a4,4,0,0,1,.16-.75A5.34,5.34,0,0,1,11,10.54l.85-1.2h0c-.23.44-.45.89-.71,1.31A5.17,5.17,0,0,0,10.48,12a2.65,2.65,0,0,0-.15.69c0,.11,0,.23,0,.35a.4.4,0,0,1-.33.42l-1.5,0L7,13.35A.33.33,0,0,1,6.72,13c0-.12,0-.24,0-.36a2.88,2.88,0,0,0-.14-.71,5.11,5.11,0,0,0-.67-1.29c-.26-.42-.5-.86-.75-1.28Z" transform="translate(-2.7 0.33)"/><path class="cls-5" d="M5,7.63l.05.83a15.13,15.13,0,0,0,6.84.15v-1A39.85,39.85,0,0,1,5,7.63Z" transform="translate(-2.7 0.33)"/><path class="cls-4" d="M5.09,8.48C5,8.47,5,8.56,5,8.63a.28.28,0,0,0,0,.22H5A7.43,7.43,0,0,0,6,10.7q.17.23.3.45a.44.44,0,0,0,.37.3,5.3,5.3,0,0,0,1,.14,10.69,10.69,0,0,0,2.12-.09,2.44,2.44,0,0,0,.5-.13l.08-.06s0,0,0-.08l.14-.24c.19-.31.4-.6.59-.9a6.91,6.91,0,0,0,.51-.92l.09-.25,0-.12h0s0,0-.09,0l-.26.05A17.49,17.49,0,0,1,9.36,9,14.6,14.6,0,0,1,5.09,8.48Zm0,0a13.84,13.84,0,0,0,4.26.28,15,15,0,0,0,2.12-.19l.26,0a.54.54,0,0,1,.2,0,.36.36,0,0,1,.19.15.31.31,0,0,1,0,.25l0,.13L12,9.28a6.3,6.3,0,0,1-.56.94c-.2.3-.41.59-.6.89l-.14.22a.4.4,0,0,1-.09.14l-.15.09a2.15,2.15,0,0,1-.54.14,11.27,11.27,0,0,1-2.17.05,5.8,5.8,0,0,1-1.08-.18,1,1,0,0,1-.25-.13c-.1-.08-.11-.16-.16-.24s-.18-.31-.28-.46a7.65,7.65,0,0,1-1-1.88h0a.36.36,0,0,1,0-.25C5,8.55,5,8.44,5.1,8.45Z" transform="translate(-2.7 0.33)"/><path class="cls-6" d="M6.68,7.8a15,15,0,0,1,1.66.74,10.18,10.18,0,0,1,1.64,1c0,.11,1.35-1.84,1.39-1.83C10,7.82,6.68,7.8,6.68,7.8Z" transform="translate(-2.7 0.33)"/><path class="cls-4" d="M11.22,4.92a3.81,3.81,0,0,0-4.4-.69A3.48,3.48,0,0,0,5.16,5.87,3.34,3.34,0,0,0,4.84,7a2.83,2.83,0,0,0,0,.3v.22s0,0,0,0a2.33,2.33,0,0,0,.57.1c1.61.08,3.24,0,4.85,0l1.21-.06a3.54,3.54,0,0,0,.58-.07h.06s0,0,0,0V7.11A3.54,3.54,0,0,0,11.22,4.92Zm0,0a4.22,4.22,0,0,1,1,2.19c0,.1,0,.21,0,.31a1.07,1.07,0,0,1,0,.18c0,.12-.1.12-.12.13l-.09,0a5.07,5.07,0,0,1-.62.11c-.41,0-.82.06-1.23.08A31.84,31.84,0,0,1,5.39,7.8a2,2,0,0,1-.62-.14.13.13,0,0,1-.09-.11V7.32l0-.31a4.45,4.45,0,0,1,.35-1.18A3.91,3.91,0,0,1,6.7,4,3.81,3.81,0,0,1,11.25,4.9Z" transform="translate(-2.7 0.33)"/><circle class="cls-7" cx="4.8" cy="5.82" r="0.15"/><circle class="cls-7" cx="3.36" cy="6.31" r="0.08"/><circle class="cls-7" cx="6.92" cy="5.26" r="0.1"/><circle class="cls-7" cx="7.69" cy="6.71" r="0.15"/><circle class="cls-7" cx="6.27" cy="6.17" r="0.09"/><rect class="cls-8" x="4.44" y="2.96" width="0.43" height="1.59" rx="0.08" ry="0.08" transform="translate(-3.85 5.52) rotate(-52.7)"/><rect class="cls-8" x="3.27" y="5.21" width="0.43" height="1.59" rx="0.08" ry="0.08" transform="translate(-6.12 7.03) rotate(-65.56)"/><rect class="cls-8" x="6.42" y="1.43" width="0.43" height="1.59" rx="0.08" ry="0.08" transform="translate(-2.98 3.62) rotate(-27.21)"/><rect class="cls-8" x="11.94" y="2.88" width="0.43" height="1.59" rx="0.08" ry="0.08" transform="translate(13.91 15.9) rotate(-127.3)"/><rect class="cls-8" x="13.11" y="5.13" width="0.43" height="1.59" rx="0.08" ry="0.08" transform="translate(10.75 20.84) rotate(-114.44)"/><rect class="cls-8" x="9.96" y="1.35" width="0.43" height="1.59" rx="0.08" ry="0.08" transform="translate(15.55 9.03) rotate(-152.79)"/><path class="cls-9" d="M9.31,15.82H7.66a.23.23,0,1,1,0-.45H9.31a.23.23,0,1,1,0,.45Z" transform="translate(-2.7 0.33)"/><path class="cls-9" d="M9.87,14.16H7.1a.22.22,0,0,1-.22-.23.22.22,0,0,1,.22-.22H9.87a.22.22,0,0,1,.22.22.22.22,0,0,1-.22.23Z" transform="translate(-2.7 0.33)"/><path class="cls-9" d="M9.62,15H7.35a.21.21,0,0,1-.18-.23.2.2,0,0,1,.18-.22H9.62a.2.2,0,0,1,.18.22.21.21,0,0,1-.18.23Z" transform="translate(-2.7 0.33)"/></svg>